<?xml version="1.0" encoding="UTF-8" standalone="no"?>
<!-- Created with Inkscape (http://www.inkscape.org/) -->

<svg
   xmlns:dc="http://purl.org/dc/elements/1.1/"
   xmlns:cc="http://creativecommons.org/ns#"
   xmlns:rdf="http://www.w3.org/1999/02/22-rdf-syntax-ns#"
   xmlns:svg="http://www.w3.org/2000/svg"
   xmlns="http://www.w3.org/2000/svg"
   xmlns:sodipodi="http://sodipodi.sourceforge.net/DTD/sodipodi-0.dtd"
   xmlns:inkscape="http://www.inkscape.org/namespaces/inkscape"
   width="617.63678"
   height="613.92725"
   id="svg2"
   version="1.1"
   inkscape:version="0.48.0 r9654"
   sodipodi:docname="r-417.svg">
  <defs
     id="defs4" />
  <sodipodi:namedview
     id="base"
     pagecolor="#ffffff"
     bordercolor="#666666"
     borderopacity="1.0"
     inkscape:pageopacity="0.0"
     inkscape:pageshadow="2"
     inkscape:zoom="0.53317828"
     inkscape:cx="-47.376181"
     inkscape:cy="387.51628"
     inkscape:document-units="px"
     inkscape:current-layer="layer1"
     showgrid="false"
     fit-margin-top="0"
     fit-margin-left="0"
     fit-margin-right="0"
     fit-margin-bottom="0"
     inkscape:window-width="1280"
     inkscape:window-height="750"
     inkscape:window-x="-8"
     inkscape:window-y="-8"
     inkscape:window-maximized="1" />
  <metadata
     id="metadata7">
    <rdf:RDF>
      <cc:Work
         rdf:about="">
        <dc:format>image/svg+xml</dc:format>
        <dc:type
           rdf:resource="http://purl.org/dc/dcmitype/StillImage" />
        <dc:title></dc:title>
      </cc:Work>
    </rdf:RDF>
  </metadata>
  <g
     inkscape:label="Capa 1"
     inkscape:groupmode="layer"
     id="layer1"
     transform="translate(-6.6938286,-251.62091)">
    <path
       sodipodi:type="arc"
       style="fill:#ffffff;fill-opacity:1;fill-rule:nonzero;stroke:#0000ff;stroke-width:1;stroke-linecap:round;stroke-linejoin:round;stroke-miterlimit:4;stroke-opacity:1;stroke-dasharray:none;stroke-dashoffset:0"
       id="path3014"
       sodipodi:cx="455.55341"
       sodipodi:cy="338.73849"
       sodipodi:rx="295.08191"
       sodipodi:ry="295.08191"
       d="m 750.63531,338.73849 a 295.08191,295.08191 0 1 1 -590.16381,0 295.08191,295.08191 0 1 1 590.16381,0 z"
       transform="matrix(1.0201905,0,0,1.0201905,-150.14899,214.71432)" />
    <path
       inkscape:connector-curvature="0"
       id="path3912"
       d="m 328.5541,862.01699 c 0.89467,-0.89464 3.21681,-0.99027 5.16032,-0.21243 2.14776,0.85945 1.50981,1.49743 -1.62662,1.6266 -2.83817,0.11685 -4.42834,-0.51943 -3.5337,-1.41407 z M 216.76603,596.88658 c -4.34623,-2.53144 -4.7116,-10.10389 -4.7116,-97.64996 0,-70.22578 0.84016,-95.74589 3.23081,-98.13653 4.63439,-4.63439 198.90629,-4.63439 203.54069,0 4.63087,4.63087 4.63087,190.83281 0,195.46368 -4.19089,4.19089 -194.89572,4.49555 -202.0599,0.32281 z M 11.648414,573.66041 c -1.461089,-3.83712 -1.151833,-4.14636 1.507158,-1.50717 1.839993,1.82632 2.667225,3.99877 1.838281,4.82771 -0.828934,0.82894 -2.33438,-0.6653 -3.345439,-3.32054 z m -0.283801,-27.8917 c -0.976066,-1.5793 -1.19724,-3.44888 -0.491503,-4.15463 0.705737,-0.70574 2.000587,0.58642 2.877434,2.87146 1.82052,4.7442 0.268842,5.57868 -2.385931,1.28317 z"
       style="fill:#e47717" />
    <path
       inkscape:connector-curvature="0"
       id="path3910"
       d="M 291.47839,861.76008 C 158.04113,849.63778 49.657271,754.47726 20.708735,624.02561 17.915634,611.43893 15.604141,594.8516 15.572093,587.16487 c -0.032,-7.68672 -1.269823,-14.72466 -2.750609,-15.63983 1.936889,-51.45501 2.476855,-4.87119 2.750609,-36.86075 0.032,-7.86152 2.343541,-24.59185 5.136642,-37.17853 26.335134,-118.67482 117.310475,-208.06887 237.115425,-232.994 29.66813,-6.17238 81.82313,-6.23159 113.91815,-0.12933 74.86461,14.2341 142.42526,56.99591 187.99953,118.99237 27.96853,38.04671 50.96504,95.06408 50.53552,125.29744 l -0.24299,17.10306 -3.46267,-18.84636 C 584.70273,387.88177 487.17778,290.57005 369.12735,269.98377 340.62412,265.01323 290.22843,264.90643 263.20884,269.75934 141.36748,291.64286 43.074071,391.73785 23.717935,513.63978 c -4.003089,25.21083 -3.453085,73.75432 1.1323,99.93689 20.958926,119.67546 117.897775,216.53978 238.358605,238.17535 27.01959,4.85291 77.41528,4.74613 105.91851,-0.22455 86.01778,-15.00024 164.27093,-72.03918 206.66828,-150.64113 13.95892,-25.87896 25.87163,-58.88049 30.51376,-84.53179 l 3.72775,-20.59859 0.91721,7.30539 c 4.00269,31.88073 -24.00793,98.64516 -55.46033,140.43559 -49.66249,65.98598 -126.99807,108.97706 -211.12731,117.36624 -27.53801,2.74605 -31.74694,2.81742 -52.8884,0.8968 z M 266.72466,838.10551 C 149.17793,816.78303 60.67855,727.76507 38.083675,608.12477 32.413619,578.10168 34.363826,524.15621 42.205202,494.11786 74.819631,369.18 177.25386,285.34363 303.5939,280.18664 c 81.59036,-3.33039 153.85625,24.4755 210.89698,81.14725 50.131,49.80669 78.64522,114.84893 81.83212,186.6627 3.64217,82.07385 -25.56603,156.2808 -84.30548,214.18823 C 449.00986,824.3 353.53083,853.85175 266.72466,838.10551 z m -38.36543,-109.43785 5.02297,-9.78229 29.7981,-0.44254 c 26.14162,-0.38823 30.74816,0.23397 37.54072,5.07069 9.08429,6.46858 21.24259,7.1317 28.60858,1.56035 3.90524,-2.95377 13.40752,-3.97451 37.59507,-4.03851 l 32.36887,-0.0856 4.7181,8.7501 c 2.59499,4.81255 8.42063,10.87031 12.94597,13.46168 10.23031,5.85829 32.72684,6.31254 37.34005,0.75394 4.22164,-5.08674 3.89829,-76.23468 -0.36982,-81.37745 -1.79951,-2.16825 -9.04862,-3.51202 -18.94619,-3.51202 -14.14417,0 -16.96175,0.93028 -23.93372,7.90228 -4.34626,4.34624 -8.64493,11.61555 -9.55262,16.15402 l -1.65035,8.25175 -30.73435,0 c -27.18707,0 -31.6343,-0.66536 -38.5315,-5.76467 -8.85813,-6.54912 -24.11316,-5.74608 -32.34388,1.70263 -3.80725,3.44551 -10.43248,4.10111 -35.17318,3.4805 l -30.48237,-0.76463 -2.17784,-8.42303 c -1.19781,-4.63269 -6.04598,-12.20488 -10.77372,-16.82711 -7.09856,-6.94015 -10.74744,-8.40407 -20.94741,-8.40407 -6.82164,0 -15.0305,1.87642 -18.33526,4.19115 -5.69262,3.98728 -5.98373,6.00149 -5.98373,41.40158 0,26.87889 0.95339,38.00164 3.43377,40.06017 5.64429,4.68435 29.38199,5.00578 37.8806,0.51295 4.21308,-2.22726 9.9205,-8.4516 12.68314,-13.83185 z m 238.12107,-87.14186 0,-10.76935 -151.38705,-0.69548 -151.38705,-0.69546 -1.64619,6.55891 c -0.9054,3.6074 -0.84618,9.07953 0.1316,12.16023 1.77641,5.59697 1.89574,5.6008 153.03324,4.9059 l 151.25545,-0.6954 z m -10.69209,-21.26228 c 5.05169,-3.69386 4.99072,-5.854 -3.36468,-119.17388 -4.68031,-63.4765 -9.27091,-117.39555 -10.2013,-119.82013 -0.93039,-2.42457 -4.3338,-5.11693 -7.56312,-5.98302 -3.22936,-0.86609 -57.4338,-1.59125 -120.45436,-1.61148 -88.83667,-0.0285 -115.64075,0.73681 -119.29108,3.406 -3.93614,2.87818 -5.32969,11.81887 -8.49778,54.51983 -9.93783,133.94669 -12.31441,182.13629 -9.16938,185.92581 2.57561,3.10344 26.35646,3.88257 136.7526,4.48046 73.49916,0.39806 134.31193,1.01506 135.1395,1.37112 0.82756,0.35607 3.81988,-1.04556 6.6496,-3.11471 z"
       style="fill:#092d78;fill-opacity:1"
       sodipodi:nodetypes="cssccssssscssssssssscsssccssssssssccsssscssssssscsssscsssssssccccccsssccsssssssssss" />
    <path
       style="fill:#092d78;fill-opacity:1;stroke:none"
       d="m 607.20908,512.49849 3.82235,24.84528 0.9556,12.90043 -0.9556,15.7672 -0.47778,20.06733 -1.91118,13.85603 1.91118,18.15616 7.1669,-39.1791 -0.95559,-31.05659 -1.91118,-25.80086 -4.77793,-26.27866 z"
       id="path3919"
       inkscape:connector-curvature="0"
       sodipodi:nodetypes="cccccccccccc" />
  </g>
</svg>
