<?xml version="1.0" encoding="UTF-8" standalone="no"?>
<!-- Created with Inkscape (http://www.inkscape.org/) -->

<svg
   xmlns:dc="http://purl.org/dc/elements/1.1/"
   xmlns:cc="http://creativecommons.org/ns#"
   xmlns:rdf="http://www.w3.org/1999/02/22-rdf-syntax-ns#"
   xmlns:svg="http://www.w3.org/2000/svg"
   xmlns="http://www.w3.org/2000/svg"
   xmlns:sodipodi="http://sodipodi.sourceforge.net/DTD/sodipodi-0.dtd"
   xmlns:inkscape="http://www.inkscape.org/namespaces/inkscape"
   width="617.63678"
   height="613.92725"
   id="svg2"
   version="1.1"
   inkscape:version="0.48.0 r9654"
   sodipodi:docname="direccionesposiblesr403a.svg">
  <defs
     id="defs4" />
  <sodipodi:namedview
     id="base"
     pagecolor="#ffffff"
     bordercolor="#666666"
     borderopacity="1.0"
     inkscape:pageopacity="0.0"
     inkscape:pageshadow="2"
     inkscape:zoom="0.53317828"
     inkscape:cx="310.60545"
     inkscape:cy="393.4902"
     inkscape:document-units="px"
     inkscape:current-layer="layer1"
     showgrid="false"
     fit-margin-top="0"
     fit-margin-left="0"
     fit-margin-right="0"
     fit-margin-bottom="0"
     inkscape:window-width="1280"
     inkscape:window-height="750"
     inkscape:window-x="-8"
     inkscape:window-y="-8"
     inkscape:window-maximized="1" />
  <metadata
     id="metadata7">
    <rdf:RDF>
      <cc:Work
         rdf:about="">
        <dc:format>image/svg+xml</dc:format>
        <dc:type
           rdf:resource="http://purl.org/dc/dcmitype/StillImage" />
        <dc:title></dc:title>
      </cc:Work>
    </rdf:RDF>
  </metadata>
  <g
     inkscape:label="Capa 1"
     inkscape:groupmode="layer"
     id="layer1"
     transform="translate(-6.6938286,-251.62091)">
    <path
       sodipodi:type="arc"
       style="fill:#ffffff;fill-opacity:1;fill-rule:nonzero;stroke:#0000ff;stroke-width:1;stroke-linecap:round;stroke-linejoin:round;stroke-miterlimit:4;stroke-opacity:1;stroke-dasharray:none;stroke-dashoffset:0"
       id="path3014"
       sodipodi:cx="455.55341"
       sodipodi:cy="338.73849"
       sodipodi:rx="295.08191"
       sodipodi:ry="295.08191"
       d="m 750.63531,338.73849 c 0,162.96924 -132.11267,295.08191 -295.0819,295.08191 -162.96924,0 -295.08191,-132.11267 -295.08191,-295.08191 0,-162.96923 132.11267,-295.081904 295.08191,-295.081904 162.96923,0 295.0819,132.112674 295.0819,295.081904 z"
       transform="matrix(1.0201905,0,0,1.0201905,-146.3979,210.96323)" />
    <path
       inkscape:connector-curvature="0"
       id="path3045"
       d="m 8.3739662,863.45459 c 0.6742594,-0.67427 2.4243928,-0.74634 3.8891778,-0.16019 1.618706,0.64775 1.137887,1.12857 -1.225941,1.22593 -2.139044,0.0881 -3.3375062,-0.39148 -2.6632368,-1.06574 z M 276.68502,861.72723 c -22.99561,-3.88601 -34.21488,-6.5677 -52.75755,-12.6104 C 115.01005,813.62264 32.658277,715.71979 17.649471,603.8859 c -1.419153,-10.57443 -3.153283,-19.22624 -3.853623,-19.22624 -0.700331,0 1.749638,-4.34997 0.625703,3.1832 -1.672741,11.21155 1.885931,13.79664 0.512659,-21.01978 -1.315006,-33.33922 -1.40632,-17.83721 -0.364614,-12.80098 0.92337,4.46411 -2.211075,-18.48497 -2.146763,-14.85789 0.200069,11.28236 2.92193,-4.59409 4.423201,-17.91507 7.185877,-63.76092 38.487508,-126.69283 87.125786,-175.16634 36.81653,-36.69181 71.96403,-58.37595 121.1694,-74.7551 129.61356,-43.14487 273.31457,8.55537 349.20793,125.63682 13.70061,21.13613 22.79489,40.30445 32.3874,68.26403 8.4797,24.71612 15.83746,56.3967 16.2595,86.39663 0.37963,26.98826 -5.67605,12.71254 -6.50824,-1.26664 C 611.31148,463.40469 561.03202,368.37534 491.77344,319.03481 401.32757,254.60019 283.13602,245.29134 185.37387,294.90254 125.5521,325.2602 82.753417,367.79507 53.526955,425.93675 33.824771,465.13129 25.260151,496.22948 22.248453,539.50914 c -3.848441,55.30422 6.085865,105.12137 30.651976,153.70934 31.046466,61.40506 75.163621,105.09954 135.611631,134.31235 36.58825,17.68208 68.66472,26.148 109.05036,28.7816 66.99029,4.36855 128.39019,-11.56998 184.39317,-47.86579 76.11354,-49.3296 124.51599,-137.98387 132.52955,-225.81611 2.07541,-22.74682 12.57224,-79.02142 5.89812,-10.8234 l -5.66149,57.85101 -7.71767,25.23457 c -15.20098,49.70273 -37.91432,83.17016 -74.37416,119.46234 -46.72717,46.51236 -95.12981,72.25529 -160.57558,85.40213 -22.01126,4.42167 -74.45149,5.50492 -95.36934,1.97005 z m 16.23309,-20.70542 C 206.55399,830.66296 134.17326,788.39648 87.306331,720.95548 75.355153,703.75787 57.128159,667.589 50.702583,648.32058 34.910723,600.96534 32.653847,546.27776 44.41327,495.92042 78.431133,350.24574 223.00979,255.91736 369.80861,283.62063 c 114.31187,21.57247 202.82801,110.68179 225.71852,227.23122 4.76123,24.24256 4.76827,71.96932 0.0139,98.15745 -21.96251,120.98744 -119.33698,214.27319 -240.50292,230.40413 -19.89761,2.649 -47.48876,3.36338 -62.12051,1.60838 z M 201.52952,678.18729 c 5.53604,-2.16469 5.85413,-14.29469 0.77445,-29.53269 -2.21807,-6.65372 -4.19539,-17.06821 -4.39406,-23.14328 l -0.36122,-11.0456 13.75974,0.45762 c 8.62728,0.28692 17.59669,-0.8168 24.04635,-2.95902 9.08111,-3.01628 10.63848,-3.06479 13.28924,-0.41403 2.54823,2.54821 2.61397,4.34887 0.43442,11.89835 -1.41251,4.89266 -4.96052,12.09162 -7.88446,15.99772 -9.44403,12.61626 -18.28108,27.66058 -18.28108,31.12198 0,3.62018 3.63354,4.16847 13.95031,2.10513 3.48759,-0.69752 6.34105,-2.45852 6.34105,-3.91333 0,-1.45484 1.17557,-3.85175 2.61238,-5.32648 1.43679,-1.47477 4.69789,-6.09057 7.2469,-10.25735 2.549,-4.16682 7.08039,-9.49013 10.06975,-11.82962 2.98934,-2.3395 6.4542,-7.14832 7.69966,-10.68623 2.64781,-7.52154 7.83266,-7.8963 17.17827,-1.24164 9.32845,6.64245 15.35252,31.10529 8.96517,36.40631 -1.67404,1.38933 -3.0437,4.24047 -3.0437,6.33586 0,3.21251 1.57051,3.80983 10.01709,3.80983 9.81329,0 10.0306,-0.13413 10.67689,-6.5947 0.36288,-3.62708 0.01,-9.33403 -0.78581,-12.68211 -0.79503,-3.34807 -1.93906,-11.97069 -2.54214,-19.16137 -0.92305,-11.00613 -2.06787,-14.07614 -7.23776,-19.41022 -3.37776,-3.48494 -5.51658,-6.96103 -4.75293,-7.72468 3.45639,-3.45641 8.18888,-0.69698 12.40887,7.23539 5.07693,9.54334 16.46392,18.48517 22.16272,17.40385 6.0652,-1.15085 5.8354,-10.86678 -0.4046,-17.10678 -2.94826,-2.94837 -4.6052,-6.02201 -3.68195,-6.8303 0.92325,-0.80828 11.03803,-1.04656 22.47725,-0.52952 l 20.79866,0.94005 0,5.48314 c 0,10.80501 6.09948,25.95341 14.11809,35.06306 16.84485,19.13672 45.53687,24.39507 68.23822,12.50589 15.60935,-8.175 27.33018,-24.15182 28.77892,-39.2291 l 1.00045,-10.41194 25.2847,0.30635 c 14.35285,0.1739 26.14969,-0.55863 27.2854,-1.69432 1.10043,-1.10038 1.70103,-4.62298 1.33478,-7.828 -0.63558,-5.56176 -1.22072,-5.87355 -12.84078,-6.84189 -14.96158,-1.2468 -14.82671,0.16923 -3.90536,-41.01208 5.16027,-19.4582 7.21834,-30.50429 5.911,-31.72581 -1.1031,-1.03073 -33.01407,-2.93073 -70.91323,-4.22225 -37.89916,-1.29155 -69.30336,-2.74403 -69.78704,-3.22775 -0.48377,-0.48373 0.0803,-2.04296 1.25323,-3.46495 1.17307,-1.42202 2.43978,-14.09309 2.81494,-28.15795 1.01917,-38.20683 -0.71823,-39.20027 -40.26719,-23.02439 -15.41106,6.30323 -29.16138,12.39476 -30.55641,13.53671 -4.13803,3.38742 -2.95674,11.35611 2.18272,14.7236 4.33404,2.83974 5.73819,2.67798 17.20728,-1.98236 15.70963,-6.3834 17.04253,-6.34195 16.25464,0.5057 -0.63548,5.52333 -0.81058,5.58609 -17.19959,6.16653 -10.96362,0.38828 -17.33996,1.52914 -18.87343,3.37687 -1.3436,1.61892 -2.82475,14.68776 -3.52782,31.12827 l -1.212,28.33781 5.23816,3.43214 c 6.14308,4.02514 12.4949,1.78991 14.70537,-5.17492 0.74449,-2.34559 2.09592,-3.48795 3.00322,-2.53858 1.44507,1.51203 12.15119,31.67576 12.15119,34.23501 0,0.53451 -6.83921,0.97185 -15.19831,0.97185 l -15.19826,0 -5.96422,-13.15383 c -6.41727,-14.15305 -5.82519,-13.71847 -32.62978,-23.94615 -12.19297,-4.65241 -15.99545,-5.04979 -50.33187,-5.26011 -23.88234,-0.1463 -38.73287,-1.06944 -41.5973,-2.58579 -2.45015,-1.29706 -10.84661,-8.28308 -18.65879,-15.52448 -16.00738,-14.83786 -30.67816,-22.67514 -42.50083,-22.70442 -5.84633,-0.0142 -9.49604,-1.44783 -13.53179,-5.31432 -6.81007,-6.52447 -10.47569,-4.83418 -8.80694,4.06101 0.87448,4.66139 0.30382,7.33683 -1.96687,9.22135 -2.32098,1.92621 -3.20189,6.34517 -3.2101,16.10294 -0.006,7.39653 -0.99163,16.97876 -2.189781,21.29386 -2.835253,10.21105 -1.169191,16.25609 5.291631,19.19984 11.52189,5.24972 18.49273,0.67963 19.58742,-12.84152 0.53265,-6.57907 1.50583,-8.23725 5.1376,-8.75382 7.18712,-1.02221 24.13121,23.41255 25.62644,36.95543 1.13418,10.27279 1.06824,10.42186 -8.61832,19.4831 -12.43654,11.63372 -15.08839,16.76086 -13.49165,26.08517 2.1538,12.57738 13.54622,42.56234 16.61905,43.74149 1.89704,0.72796 4.96803,-2.12027 8.79853,-8.16036 6.23705,-9.8348 6.19931,-14.06414 -0.14349,-16.07727 -5.33386,-1.69292 -10.30586,-12.02091 -9.54761,-19.83262 0.70062,-7.21786 6.41172,-11.05484 17.86907,-12.00527 5.86938,-0.48687 7.5376,0.51999 12.51733,7.5548 3.16,4.46411 7.61132,13.45421 9.89184,19.97805 l 4.14639,11.8615 -4.14426,7.024 c -5.25176,8.90105 -5.19788,10.36511 0.4213,11.44742 6.88974,1.32701 8.27835,1.28186 12.60465,-0.40978 z m 209.07852,-24.31385 c -13.63423,-6.2926 -23.33515,-20.64187 -23.33515,-34.51653 0,-7.0782 4.39151,-9.20119 14.93968,-7.22233 5.96065,1.11822 7.19069,2.32694 8.28072,8.1372 3.73006,19.88292 33.05222,19.73137 36.78951,-0.19013 1.17039,-6.23845 2.02012,-7.01098 7.68478,-6.98635 11.83865,0.0515 15.49995,1.98689 15.49995,8.19341 0,26.30012 -33.71327,44.65204 -59.85949,32.58475 z M 297.99096,587.82313 c 0,-3.56424 1.21761,-4.08904 2.95704,-1.27455 0.64207,1.03893 0.23946,2.46249 -0.89481,3.16347 -1.13422,0.70099 -2.06223,-0.14902 -2.06223,-1.88892 z m 85.57119,-140.44469 c 7.9114,-7.15966 2.22395,-20.99143 -8.63131,-20.99143 -5.10974,0 -10.75121,5.11448 -10.75121,9.54644 0,0.81502 -1.39295,6.51614 0.92008,9.45671 4.86775,6.1884 12.86922,7.05011 18.46244,1.98828 z"
       style="fill:#092d78;fill-opacity:1"
       sodipodi:nodetypes="csscssssssssssssssssssssssssscsssscssssscsccssscsssssssscsssssssccssssscsscsssscssssscsccssssssssscsccsscssssscssscsssssssssssssscssscssssssccsscssssss" />
  </g>
</svg>
