<?xml version="1.0" encoding="UTF-8" standalone="no"?>
<svg
   xmlns:dc="http://purl.org/dc/elements/1.1/"
   xmlns:cc="http://creativecommons.org/ns#"
   xmlns:rdf="http://www.w3.org/1999/02/22-rdf-syntax-ns#"
   xmlns:svg="http://www.w3.org/2000/svg"
   xmlns="http://www.w3.org/2000/svg"
   xmlns:sodipodi="http://sodipodi.sourceforge.net/DTD/sodipodi-0.dtd"
   xmlns:inkscape="http://www.inkscape.org/namespaces/inkscape"
   version="1.1"
   id="Layer_1"
   x="0px"
   y="0px"
   width="769.688px"
   height="769.656px"
   viewBox="-360.791 -360.781 769.688 769.656"
   xml:space="preserve"
   inkscape:version="0.91 r13725"
   sodipodi:docname="Spain_traffic_signal_r301-70.svg"><metadata
     id="metadata15"><rdf:RDF><cc:Work
         rdf:about=""><dc:format>image/svg+xml</dc:format><dc:type
           rdf:resource="http://purl.org/dc/dcmitype/StillImage" /></cc:Work></rdf:RDF></metadata><defs
     id="defs13" /><sodipodi:namedview
     pagecolor="#ffffff"
     bordercolor="#666666"
     borderopacity="1"
     objecttolerance="10"
     gridtolerance="10"
     guidetolerance="10"
     inkscape:pageopacity="0"
     inkscape:pageshadow="2"
     inkscape:window-width="693"
     inkscape:window-height="480"
     id="namedview11"
     showgrid="false"
     inkscape:zoom="0.30663049"
     inkscape:cx="384.84399"
     inkscape:cy="352.98122"
     inkscape:window-x="0"
     inkscape:window-y="0"
     inkscape:window-maximized="0"
     inkscape:current-layer="Layer_1" /><path
     fill="#E41408"
     d="M-360.791,24.031c0-212.523,172.305-384.812,384.852-384.812c212.508,0,384.836,172.289,384.836,384.812  c0,212.531-172.328,384.844-384.836,384.844C-188.486,408.875-360.791,236.562-360.791,24.031"
     id="path3" /><path
     fill="#FFFFFF"
     d="M-258.15,24.031c0-155.852,126.336-282.203,282.211-282.203c155.852,0,282.18,126.352,282.18,282.203  c0,155.875-126.328,282.188-282.18,282.188C-131.814,306.219-258.15,179.906-258.15,24.031"
     id="path5"
     style="fill:#ffcc00" /><polyline
     fill-rule="evenodd"
     points="-135.389,139.074 -78.205,139.074 -3.07,-45.535 -3.07,-89.614 -164.8,-89.614   -164.8,-40.605 -61.858,-40.605 -135.389,139.074 "
     id="polyline7" /><path
     fill-rule="evenodd"
     d="M214.235-29.186c-11.458-40.833-50.649-70.245-93.163-70.245c-40.833,0-80.024,29.412-91.485,70.245  c-4.888,29.411-4.888,70.245,0,98.015c11.461,40.834,50.652,70.245,91.485,70.245c42.514,0,81.705-29.411,93.163-70.245  C220.771,41.06,220.771,0.226,214.235-29.186z M163.586,52.482c-3.244,19.595-21.278,34.3-40.834,34.3  c-21.273,0-39.228-14.705-42.513-34.3c-3.248-19.598-3.248-45.723,0-63.714c3.285-21.202,21.239-35.907,42.513-35.907  c19.556,0,37.59,14.705,40.834,35.907C166.873,6.759,166.873,32.885,163.586,52.482z"
     id="path9" /></svg>