<?xml version="1.0" encoding="UTF-8" standalone="no"?>
<svg
   xmlns:dc="http://purl.org/dc/elements/1.1/"
   xmlns:cc="http://creativecommons.org/ns#"
   xmlns:rdf="http://www.w3.org/1999/02/22-rdf-syntax-ns#"
   xmlns:svg="http://www.w3.org/2000/svg"
   xmlns="http://www.w3.org/2000/svg"
   xmlns:sodipodi="http://sodipodi.sourceforge.net/DTD/sodipodi-0.dtd"
   xmlns:inkscape="http://www.inkscape.org/namespaces/inkscape"
   version="1.1"
   id="Layer_1"
   x="0px"
   y="0px"
   width="769.688px"
   height="769.656px"
   viewBox="-360.791 -360.781 769.688 769.656"
   xml:space="preserve"
   inkscape:version="0.91 r13725"
   sodipodi:docname="Spain_traffic_signal_r301-40.svg"><metadata
     id="metadata15"><rdf:RDF><cc:Work
         rdf:about=""><dc:format>image/svg+xml</dc:format><dc:type
           rdf:resource="http://purl.org/dc/dcmitype/StillImage" /></cc:Work></rdf:RDF></metadata><defs
     id="defs13" /><sodipodi:namedview
     pagecolor="#ffffff"
     bordercolor="#666666"
     borderopacity="1"
     objecttolerance="10"
     gridtolerance="10"
     guidetolerance="10"
     inkscape:pageopacity="0"
     inkscape:pageshadow="2"
     inkscape:window-width="1366"
     inkscape:window-height="705"
     id="namedview11"
     showgrid="false"
     inkscape:zoom="0.30663049"
     inkscape:cx="384.84399"
     inkscape:cy="384.828"
     inkscape:window-x="-8"
     inkscape:window-y="-8"
     inkscape:window-maximized="1"
     inkscape:current-layer="Layer_1" /><path
     fill="#E41408"
     d="M-360.791,24.031c0-212.523,172.305-384.812,384.852-384.812c212.508,0,384.836,172.289,384.836,384.812  c0,212.531-172.328,384.844-384.836,384.844C-188.486,408.875-360.791,236.562-360.791,24.031"
     id="path3" /><path
     fill="#FFFFFF"
     d="M-258.15,24.031c0-155.852,126.336-282.203,282.211-282.203c155.852,0,282.18,126.352,282.18,282.203  c0,155.875-126.328,282.188-282.18,282.188C-131.814,306.219-258.15,179.906-258.15,24.031"
     id="path5"
     style="fill:#ffcc00" /><path
     fill-rule="evenodd"
     d="M-17.92,55.642V-88.984h-65.016l-112.1,146.224v47.157h123.498v34.084h53.618v-34.084H9.705V55.642  H-17.92z M-71.539,55.642h-60.116l60.116-79.646V55.642z"
     id="path7" /><path
     fill-rule="evenodd"
     d="M238.88-28.869c-9.768-40.66-48.752-69.882-91.009-69.882c-40.66,0-79.645,29.222-91.047,69.882  c-8.132,29.22-8.132,69.88,0,97.505c11.402,40.623,50.387,69.844,91.047,69.844c42.257,0,81.241-29.221,91.009-69.844  C247.011,41.012,247.011,0.352,238.88-28.869z M190.128,52.375c-3.268,19.492-21.127,34.123-42.257,34.123  c-19.495,0-37.428-14.631-40.66-34.123c-3.268-19.495-3.268-45.487,0-63.385c3.232-21.126,21.165-35.757,40.66-35.757  c21.13,0,38.989,14.63,42.257,35.757C193.355,6.888,193.355,32.88,190.128,52.375z"
     id="path9" /></svg>