<?xml version="1.0" encoding="UTF-8" standalone="no"?>
<svg
   xmlns:dc="http://purl.org/dc/elements/1.1/"
   xmlns:cc="http://creativecommons.org/ns#"
   xmlns:rdf="http://www.w3.org/1999/02/22-rdf-syntax-ns#"
   xmlns:svg="http://www.w3.org/2000/svg"
   xmlns="http://www.w3.org/2000/svg"
   xmlns:sodipodi="http://sodipodi.sourceforge.net/DTD/sodipodi-0.dtd"
   xmlns:inkscape="http://www.inkscape.org/namespaces/inkscape"
   version="1.1"
   id="Layer_1"
   x="0px"
   y="0px"
   width="769.688px"
   height="769.656px"
   viewBox="-360.791 -360.781 769.688 769.656"
   xml:space="preserve"
   inkscape:version="0.91 r13725"
   sodipodi:docname="Spain_traffic_signal_r301-30.svg"><metadata
     id="metadata15"><rdf:RDF><cc:Work
         rdf:about=""><dc:format>image/svg+xml</dc:format><dc:type
           rdf:resource="http://purl.org/dc/dcmitype/StillImage" /></cc:Work></rdf:RDF></metadata><defs
     id="defs13" /><sodipodi:namedview
     pagecolor="#ffffff"
     bordercolor="#666666"
     borderopacity="1"
     objecttolerance="10"
     gridtolerance="10"
     guidetolerance="10"
     inkscape:pageopacity="0"
     inkscape:pageshadow="2"
     inkscape:window-width="1366"
     inkscape:window-height="705"
     id="namedview11"
     showgrid="false"
     inkscape:zoom="0.30663049"
     inkscape:cx="384.84399"
     inkscape:cy="384.828"
     inkscape:window-x="-8"
     inkscape:window-y="-8"
     inkscape:window-maximized="1"
     inkscape:current-layer="Layer_1" /><path
     fill="#E41408"
     d="M-360.791,24.031c0-212.523,172.305-384.812,384.852-384.812c212.508,0,384.836,172.289,384.836,384.812  c0,212.531-172.328,384.844-384.836,384.844C-188.486,408.875-360.791,236.562-360.791,24.031"
     id="path3" /><path
     fill="#FFFFFF"
     d="M-258.15,24.031c0-155.852,126.336-282.203,282.211-282.203c155.852,0,282.18,126.352,282.18,282.203  c0,155.875-126.328,282.188-282.18,282.188C-131.814,306.219-258.15,179.906-258.15,24.031"
     id="path5"
     style="fill:#ffcc00" /><path
     fill-rule="evenodd"
     d="M-171.814,70.122c1.99,7.914,5.869,19.652,7.836,25.548c7.861,15.619,23.453,33.308,39.15,39.1  c23.531,9.827,58.777,9.827,84.301,2.017c19.6-7.809,37.184-25.497,43.08-45.047c1.912-7.861,3.93-19.653,3.93-25.443  c0-9.828-3.93-19.602-5.895-27.515c-5.947-7.81-15.699-13.704-23.533-17.583c5.896-1.915,13.705-7.81,19.602-13.707  C4.465-4.352,6.482-23.849,0.588-39.52C-5.359-61.085-26.824-82.6-48.391-88.497c-19.6-5.896-47.01-5.896-66.611,0  c-5.869,2.017-13.705,5.896-19.576,7.81c-19.652,11.791-35.246,37.34-35.246,60.769l52.91,5.844  c-2.02-9.774,3.877-21.514,13.703-25.445c9.828-5.896,23.455-7.861,33.281-3.827c9.826,1.862,17.584,11.585,17.584,23.428  c-1.939,5.844-5.869,11.74-11.715,13.706c-9.746,5.896-25.443,7.86-37.236,5.896v47.012c9.773-2.017,25.496-2.017,33.307,0  c9.775,1.913,17.637,7.809,19.6,17.634c1.992,9.776-1.963,19.55-9.824,23.48c-5.846,3.931-13.705,5.897-21.541,5.897  c-3.881,0-11.768-1.967-15.645-1.967c-11.688-3.931-21.514-15.618-21.514-29.375L-171.814,70.122"
     id="path7" /><path
     fill-rule="evenodd"
     d="M238.88-28.869c-9.768-40.66-48.752-69.882-91.009-69.882c-40.66,0-79.645,29.222-91.047,69.882  c-8.132,29.22-8.132,69.88,0,97.505c11.402,40.623,50.387,69.844,91.047,69.844c42.257,0,81.241-29.221,91.009-69.844  C247.011,41.012,247.011,0.352,238.88-28.869z M190.128,52.375c-3.268,19.492-21.127,34.123-42.257,34.123  c-19.495,0-37.428-14.631-40.66-34.123c-3.268-19.495-3.268-45.487,0-63.385c3.232-21.126,21.165-35.757,40.66-35.757  c21.13,0,38.989,14.63,42.257,35.757C193.355,6.888,193.355,32.88,190.128,52.375z"
     id="path9" /></svg>