<?xml version="1.0" encoding="utf-8"?>
<!-- Generator: Adobe Illustrator 19.0.0, SVG Export Plug-In . SVG Version: 6.00 Build 0)  -->
<svg version="1.1" id="Capa_1" xmlns="http://www.w3.org/2000/svg" xmlns:xlink="http://www.w3.org/1999/xlink" x="0px" y="0px"
	 width="217.8px" height="192.4px" viewBox="-188 324.5 217.8 192.4" style="enable-background:new -188 324.5 217.8 192.4;"
	 xml:space="preserve">
<style type="text/css">
	.st0{fill:#E41408;}
	.st1{fill:#FFFFFF;}
	.st2{clip-path:url(#SVGID_2_);fill:#1C1D20;}
	.st3{fill:#1C1D20;}
</style>
<path class="st0" d="M-173.9,516.9c-7.8,0-14.1-6.3-14.1-14.1c0-2.5,0.7-4.9,1.8-7l94.9-164.2c2.4-4.2,7-7.1,12.3-7.1
	s9.8,2.9,12.3,7.1L28,495.8c1.2,2.1,1.8,4.4,1.8,7c0,7.8-6.3,14.1-14.1,14.1H-173.9"/>
<polyline class="st1" points="-166.1,498.4 -79.1,347.7 8,498.4 -166.1,498.4 "/>
<g>
	<g>
		<g>
			<defs>
				<polyline id="SVGID_1_" points="-166.1,498.4 -79.1,347.7 8,498.4 -166.1,498.4 				"/>
			</defs>
			<clipPath id="SVGID_2_">
				<use xlink:href="#SVGID_1_"  style="overflow:visible;"/>
			</clipPath>
			<polyline class="st2" points="-178.8,505.4 19.8,505.4 -125.9,420.7 -178.8,505.4 			"/>
		</g>
	</g>
</g>
<g>
	<path class="st3" d="M-83,417.5c0.3-1.5-0.2-2.7-1.6-3.6c-1-0.6-2.1-0.7-3.2-0.5c-1.1,0.3-2,0.9-2.6,1.9c0.7-0.1,1.5,0,2.4,0.2
		c0.9,0.2,1.7,0.6,2.5,1c2.2,1.3,3.5,3.1,4.1,5.5c0.5,2.4,0.1,4.8-1.3,7.1c-1.5,2.5-3.4,4.1-5.8,4.7c-2.4,0.7-4.8,0.3-7.2-1.1
		c-2.9-1.7-4.5-4.1-4.9-7.3c-0.3-3.1,0.6-6.7,2.9-10.6c2.5-4.2,5.3-6.8,8.2-7.5c1.1-0.3,2.3-0.3,3.7-0.1c1.3,0.2,2.6,0.7,3.8,1.4
		c1.2,0.7,2.3,1.6,3.1,2.7c0.8,1.1,1.4,2.1,1.6,3.2c0.1,0.5,0.1,1,0.1,1.5c0,0.5,0,1.2-0.2,2L-83,417.5z M-91.8,420.7
		c-0.9,0.3-1.7,0.9-2.3,2c-0.6,1-0.8,2-0.6,2.9c0.2,0.9,0.8,1.7,1.7,2.2c0.9,0.6,1.9,0.7,2.8,0.4c0.9-0.3,1.7-0.9,2.3-1.9
		c0.6-1,0.8-2,0.6-3c-0.2-0.9-0.8-1.7-1.7-2.3C-89.9,420.6-90.9,420.4-91.8,420.7z"/>
	<path class="st3" d="M-60.1,424.5c0.3,1.9-0.2,4-1.5,6.2c-1.3,2.2-2.8,3.6-4.7,4.2c-1.8,0.6-3.6,0.4-5.4-0.6
		c-1.8-1.1-2.9-2.6-3.2-4.5c-0.3-1.9,0.2-4,1.5-6.2s2.9-3.6,4.7-4.3s3.6-0.5,5.4,0.6C-61.5,421-60.4,422.5-60.1,424.5z M-68.9,448
		l-3.6-2.1l20-19.4l3.6,2.1L-68.9,448z M-66.8,422.6c-0.6,0-1.1,0.2-1.5,0.5c-0.3,0.2-0.6,0.5-0.8,0.8c-0.2,0.3-0.6,0.9-1,1.6
		c-0.4,0.8-0.8,1.3-0.9,1.7c-0.2,0.4-0.3,0.7-0.3,1.1c-0.1,0.5,0,1.1,0.3,1.6c0.3,0.5,0.7,0.9,1.2,1.2c1,0.5,1.9,0.6,2.9,0.1
		c0.3-0.2,0.7-0.4,1-0.8c0.3-0.4,0.7-0.9,1.2-1.7c0.5-0.9,0.9-1.6,1.1-2.1c0.2-0.5,0.2-0.9,0.2-1.3c-0.1-1-0.6-1.7-1.5-2.3
		C-65.7,422.8-66.2,422.6-66.8,422.6z M-46.6,444.8c0.3,1.9-0.2,4-1.5,6.2c-1.3,2.2-2.8,3.6-4.7,4.2c-1.8,0.6-3.6,0.4-5.4-0.6
		c-1.8-1.1-2.9-2.6-3.2-4.5c-0.3-1.9,0.2-4,1.5-6.2c1.3-2.2,2.9-3.6,4.7-4.3c1.8-0.7,3.6-0.5,5.4,0.6
		C-48,441.4-46.9,442.9-46.6,444.8z M-53.3,443c-0.6,0-1.1,0.2-1.5,0.5c-0.3,0.2-0.6,0.5-0.8,0.8c-0.2,0.3-0.6,0.9-1,1.6
		c-0.4,0.8-0.8,1.3-0.9,1.7c-0.2,0.4-0.3,0.7-0.3,1.1c-0.1,0.5,0,1.1,0.3,1.6c0.3,0.5,0.7,0.9,1.2,1.2c0.9,0.6,1.9,0.6,2.9,0.1
		c0.3-0.2,0.7-0.4,1-0.8c0.3-0.4,0.7-0.9,1.2-1.8c0.5-0.9,0.9-1.6,1.1-2.1c0.2-0.5,0.2-0.9,0.2-1.3c-0.1-1-0.6-1.7-1.5-2.3
		C-52.1,443.1-52.7,443-53.3,443z"/>
</g>
</svg>
