<?xml version="1.0" encoding="utf-8"?>
<!-- Generator: Adobe Illustrator 19.0.0, SVG Export Plug-In . SVG Version: 6.00 Build 0)  -->
<svg version="1.1" id="Capa_1" xmlns="http://www.w3.org/2000/svg" xmlns:xlink="http://www.w3.org/1999/xlink" x="0px" y="0px"
	 viewBox="0 0 217.8 192.4" style="enable-background:new 0 0 217.8 192.4;" xml:space="preserve">
<style type="text/css">
	.st0{fill:#E41408;}
	.st1{fill:#FFFFFF;}
	.st2{clip-path:url(#SVGID_2_);fill:#1C1D20;}
</style>
<path class="st0" d="M14.1,192.4c-7.8,0-14.1-6.3-14.1-14.1c0-2.5,0.7-4.9,1.8-7L96.7,7.1c2.4-4.2,7-7.1,12.3-7.1s9.8,2.9,12.3,7.1
	L216,171.3c1.2,2.1,1.8,4.4,1.8,7c0,7.8-6.3,14.1-14.1,14.1H14.1"/>
<polyline class="st1" points="21.9,173.9 108.9,23.2 196,173.9 21.9,173.9 "/>
<g>
	<g>
		<defs>
			<polyline id="SVGID_1_" points="196.1,173.9 109,23.2 22,173.9 196.1,173.9 			"/>
		</defs>
		<clipPath id="SVGID_2_">
			<use xlink:href="#SVGID_1_"  style="overflow:visible;"/>
		</clipPath>
		<polyline class="st2" points="208.8,180.9 10.2,180.9 155.8,96.2 208.8,180.9 		"/>
	</g>
</g>
<g>
	<path d="M87.2,109l-9,5.7l1.1,2.2c0.4-0.5,0.8-0.9,1.1-1.3c0.4-0.4,0.8-0.7,1.4-1.1c2.1-1.3,4.3-1.8,6.7-1.2c2.3,0.5,4.1,1.8,5.5,4
		c1.5,2.3,1.9,4.7,1.4,7.2c-0.5,2.4-2,4.4-4.2,5.8c-1.1,0.7-2.4,1.2-3.7,1.5c-1.3,0.3-2.5,0.2-3.7-0.1c-0.7-0.2-1.4-0.4-2-0.8
		c-0.7-0.4-1.4-0.9-2.2-1.6l3.7-4.2c1.8,1.4,3.4,1.6,4.9,0.7c0.8-0.5,1.3-1.2,1.5-2.2s0-1.9-0.6-2.8c-0.6-1-1.4-1.6-2.3-1.9
		c-1-0.3-1.8-0.2-2.7,0.4c-1.1,0.7-1.6,1.8-1.6,3.2l-5.5,2.5L71.2,113l13.2-8.3L87.2,109z"/>
	<path d="M100,97c1.7,0.6,3.2,1.9,4.5,3.9c1.2,2,1.7,3.9,1.5,5.6c-0.3,1.8-1.2,3.2-2.8,4.2c-1.6,1-3.3,1.3-5,0.7
		c-1.7-0.6-3.2-1.8-4.4-3.9c-1.3-2-1.8-3.9-1.6-5.7c0.2-1.8,1.2-3.2,2.8-4.2C96.6,96.7,98.3,96.4,100,97z M95.6,101.7
		c-0.2,0.5-0.3,1-0.2,1.5c0,0.4,0.2,0.7,0.3,1c0.2,0.3,0.5,0.8,0.9,1.5c0.4,0.7,0.8,1.2,1,1.5c0.2,0.3,0.5,0.5,0.8,0.7
		c0.4,0.3,0.9,0.4,1.4,0.4c0.5,0,1-0.2,1.5-0.5c0.9-0.6,1.3-1.3,1.3-2.3c0-0.4-0.1-0.7-0.2-1.1c-0.2-0.4-0.5-1-0.9-1.7
		c-0.5-0.8-0.9-1.4-1.3-1.8c-0.3-0.3-0.7-0.6-1-0.7c-0.8-0.3-1.7-0.2-2.5,0.3C96.2,100.8,95.8,101.2,95.6,101.7z M115.6,114.2
		l-3.3,2.1l-7.4-24.7l3.3-2.1L115.6,114.2z M122.4,94.5c1.7,0.6,3.2,1.9,4.5,3.9c1.2,2,1.8,3.9,1.5,5.6c-0.2,1.8-1.2,3.2-2.8,4.2
		c-1.6,1-3.3,1.3-5,0.7c-1.7-0.6-3.2-1.8-4.4-3.9c-1.3-2-1.8-3.9-1.6-5.7c0.2-1.8,1.2-3.2,2.8-4.2C119,94.2,120.7,94,122.4,94.5z
		 M118.1,99.3c-0.2,0.5-0.3,1-0.2,1.5c0,0.4,0.2,0.7,0.3,1c0.2,0.3,0.5,0.8,0.9,1.5c0.4,0.7,0.8,1.2,1,1.5c0.2,0.3,0.5,0.5,0.8,0.7
		c0.4,0.3,0.9,0.4,1.4,0.4c0.5,0,1-0.2,1.5-0.5c0.9-0.5,1.3-1.3,1.3-2.3c0-0.4-0.1-0.7-0.2-1.1c-0.2-0.4-0.5-1-0.9-1.7
		c-0.5-0.8-0.9-1.4-1.3-1.8c-0.3-0.3-0.7-0.6-1-0.7c-0.9-0.3-1.7-0.2-2.5,0.3C118.7,98.4,118.3,98.8,118.1,99.3z"/>
</g>
</svg>
