<?xml version="1.0" encoding="utf-8"?>
<!-- Generator: Adobe Illustrator 19.0.0, SVG Export Plug-In . SVG Version: 6.00 Build 0)  -->
<svg version="1.1" id="Capa_1" xmlns="http://www.w3.org/2000/svg" xmlns:xlink="http://www.w3.org/1999/xlink" x="0px" y="0px"
	 width="217.8px" height="192.4px" viewBox="-188 324.5 217.8 192.4" style="enable-background:new -188 324.5 217.8 192.4;"
	 xml:space="preserve">
<style type="text/css">
	.st0{fill:#E41408;}
	.st1{fill:#FFFFFF;}
	.st2{clip-path:url(#SVGID_2_);fill:#1C1D20;}
	.st3{fill:#1C1D20;}
</style>
<path class="st0" d="M-173.9,516.9c-7.8,0-14.1-6.3-14.1-14.1c0-2.5,0.7-4.9,1.8-7l94.9-164.2c2.4-4.2,7-7.1,12.3-7.1
	s9.8,2.9,12.3,7.1L28,495.8c1.2,2.1,1.8,4.4,1.8,7c0,7.8-6.3,14.1-14.1,14.1H-173.9"/>
<polyline class="st1" points="-166.1,498.4 -79.1,347.7 8,498.4 -166.1,498.4 "/>
<g>
	<g>
		<g>
			<defs>
				<polyline id="SVGID_1_" points="8.1,498.4 -79,347.7 -166,498.4 8.1,498.4 				"/>
			</defs>
			<clipPath id="SVGID_2_">
				<use xlink:href="#SVGID_1_"  style="overflow:visible;"/>
			</clipPath>
			<polyline class="st2" points="20.8,505.4 -177.8,505.4 -32.2,420.7 20.8,505.4 			"/>
		</g>
	</g>
</g>
<g>
	<path class="st3" d="M-104.5,435.1c-1.1-1.1-2.4-1.3-3.9-0.5c-1,0.6-1.7,1.4-2.1,2.5c-0.3,1.1-0.2,2.2,0.3,3.2
		c0.3-0.7,0.8-1.3,1.4-2s1.4-1.2,2.2-1.6c2.2-1.2,4.5-1.4,6.9-0.6c2.3,0.8,4.1,2.4,5.4,4.8c1.4,2.5,1.7,5,1,7.4
		c-0.7,2.4-2.2,4.3-4.7,5.6c-3,1.6-5.9,1.7-8.7,0.4c-2.9-1.3-5.3-4-7.5-8c-2.3-4.4-3-8-2.1-11c0.4-1.1,1-2.2,1.8-3.2s2-1.9,3.2-2.5
		s2.6-1.1,3.9-1.3c1.3-0.2,2.6-0.1,3.6,0.3c0.5,0.2,0.9,0.4,1.4,0.7c0.5,0.3,1,0.7,1.6,1.2L-104.5,435.1z M-106.3,444.3
		c-0.2,0.9-0.1,1.9,0.5,3c0.6,1.1,1.3,1.7,2.2,2.1s1.8,0.2,2.8-0.3c1-0.5,1.6-1.2,1.8-2.2s0.1-1.9-0.5-2.9c-0.6-1.1-1.3-1.8-2.2-2.1
		c-0.9-0.3-1.8-0.2-2.8,0.3S-106.1,443.4-106.3,444.3z"/>
	<path class="st3" d="M-86.6,419.2c1.8,0.7,3.3,2.3,4.5,4.6c1.2,2.2,1.6,4.3,1.2,6.2s-1.5,3.3-3.4,4.3c-1.9,1-3.7,1.1-5.5,0.4
		c-1.8-0.7-3.3-2.2-4.5-4.5c-1.2-2.3-1.6-4.3-1.2-6.2c0.4-1.9,1.5-3.3,3.4-4.3C-90.3,418.6-88.4,418.5-86.6,419.2z M-91.7,424
		c-0.3,0.5-0.4,1-0.4,1.6c0,0.4,0.1,0.8,0.3,1.1c0.2,0.4,0.4,1,0.8,1.7c0.4,0.8,0.7,1.3,1,1.7c0.2,0.3,0.5,0.6,0.8,0.8
		c0.4,0.3,0.9,0.5,1.5,0.6c0.6,0,1.1-0.1,1.7-0.4c1-0.6,1.5-1.4,1.6-2.4c0-0.4,0-0.8-0.2-1.2s-0.4-1.1-0.9-1.9
		c-0.5-0.9-0.9-1.6-1.2-2c-0.3-0.4-0.7-0.7-1-0.9c-0.9-0.4-1.8-0.4-2.8,0.1C-91,423.1-91.4,423.5-91.7,424z M-71.1,439l-3.7,2
		l-6.1-27.2l3.7-2L-71.1,439z M-62.2,418.3c1.8,0.7,3.3,2.3,4.5,4.6c1.2,2.2,1.6,4.3,1.2,6.2s-1.5,3.3-3.3,4.3
		c-1.9,1-3.7,1.1-5.5,0.4c-1.8-0.7-3.3-2.2-4.5-4.5c-1.2-2.3-1.6-4.3-1.2-6.2s1.5-3.3,3.4-4.3S-64,417.6-62.2,418.3z M-67.2,423.1
		c-0.3,0.5-0.4,1-0.4,1.6c0,0.4,0.1,0.8,0.3,1.1c0.2,0.4,0.4,1,0.8,1.7c0.4,0.8,0.7,1.3,1,1.7s0.5,0.6,0.8,0.8
		c0.4,0.3,0.9,0.5,1.5,0.6c0.6,0,1.1-0.1,1.7-0.4c1-0.5,1.5-1.3,1.6-2.4c0-0.4,0-0.8-0.2-1.2s-0.4-1.1-0.9-1.9
		c-0.5-0.9-0.9-1.6-1.2-2c-0.3-0.4-0.7-0.7-1-0.9c-0.9-0.4-1.8-0.4-2.7,0.1C-66.6,422.1-67,422.5-67.2,423.1z"/>
</g>
</svg>
