<?xml version="1.0" encoding="utf-8"?>
<!-- Generator: Adobe Illustrator 19.0.0, SVG Export Plug-In . SVG Version: 6.00 Build 0)  -->
<svg version="1.1" id="Capa_1" xmlns="http://www.w3.org/2000/svg" xmlns:xlink="http://www.w3.org/1999/xlink" x="0px" y="0px"
	 viewBox="0 0 217.8 192.4" style="enable-background:new 0 0 217.8 192.4;" xml:space="preserve">
<style type="text/css">
	.st0{fill:#E41408;}
	.st1{fill:#FFFFFF;}
	.st2{clip-path:url(#SVGID_2_);fill:#1C1D20;}
</style>
<path class="st0" d="M14.1,192.4c-7.8,0-14.1-6.3-14.1-14.1c0-2.5,0.7-4.9,1.8-7L96.7,7.1c2.4-4.2,7-7.1,12.3-7.1s9.8,2.9,12.3,7.1
	L216,171.3c1.2,2.1,1.8,4.4,1.8,7c0,7.8-6.3,14.1-14.1,14.1H14.1"/>
<polyline class="st1" points="21.9,173.9 108.9,23.2 196,173.9 21.9,173.9 "/>
<g>
	<g>
		<defs>
			<polyline id="SVGID_1_" points="21.9,173.9 108.9,23.2 196,173.9 21.9,173.9 			"/>
		</defs>
		<clipPath id="SVGID_2_">
			<use xlink:href="#SVGID_1_"  style="overflow:visible;"/>
		</clipPath>
		<polyline class="st2" points="9.2,180.9 207.8,180.9 62.1,96.2 9.2,180.9 		"/>
	</g>
</g>
<g>
	<path d="M109,92.3l-10-5.6l-1.5,2.1c0.7,0.1,1.3,0.2,1.8,0.4c0.5,0.2,1.1,0.4,1.7,0.7c2.4,1.3,3.9,3.2,4.6,5.7
		c0.7,2.5,0.4,4.9-0.9,7.2c-1.5,2.6-3.5,4.3-6.1,5.1c-2.6,0.8-5.2,0.4-7.7-1c-1.3-0.7-2.4-1.6-3.3-2.7c-0.9-1.1-1.5-2.3-1.8-3.6
		c-0.2-0.7-0.3-1.5-0.3-2.3c0-0.8,0.1-1.8,0.3-2.9l5.9,1.3c-0.4,2.4,0.3,4.1,1.9,5c0.9,0.5,1.9,0.6,2.8,0.3c1-0.3,1.8-1,2.4-2.1
		c0.6-1.1,0.8-2.1,0.6-3.2c-0.2-1.1-0.8-1.8-1.7-2.4c-1.2-0.6-2.5-0.6-3.9,0.1l-5.3-3.9L97,79.2l14.8,8.2L109,92.3z"/>
	<path d="M127.1,98.1c0.3,1.9-0.1,4-1.4,6.3c-1.2,2.2-2.8,3.7-4.6,4.4c-1.8,0.7-3.6,0.5-5.4-0.5c-1.8-1-2.9-2.5-3.3-4.4
		s0.1-4,1.3-6.2s2.8-3.7,4.6-4.4c1.8-0.7,3.6-0.6,5.5,0.5C125.6,94.8,126.7,96.2,127.1,98.1z M118.9,121.9l-3.7-2l19.6-19.8l3.7,2
		L118.9,121.9z M120.3,96.5c-0.6,0-1.1,0.2-1.5,0.5c-0.3,0.2-0.6,0.5-0.8,0.9c-0.2,0.3-0.6,0.9-1,1.6c-0.4,0.8-0.7,1.3-0.9,1.7
		c-0.2,0.4-0.3,0.8-0.3,1.1c-0.1,0.5,0.1,1.1,0.3,1.6c0.3,0.5,0.7,0.9,1.2,1.2c1,0.5,2,0.5,2.9,0.1c0.3-0.2,0.7-0.4,1-0.8
		c0.3-0.4,0.7-1,1.1-1.8c0.5-0.9,0.9-1.6,1-2.1c0.2-0.5,0.2-0.9,0.2-1.3c-0.1-1-0.7-1.7-1.6-2.3C121.5,96.6,120.9,96.4,120.3,96.5z
		 M141.1,118.1c0.3,1.9-0.1,4-1.4,6.3c-1.2,2.2-2.7,3.7-4.5,4.4s-3.6,0.5-5.4-0.5c-1.8-1-2.9-2.5-3.3-4.4c-0.3-1.9,0.1-4,1.3-6.2
		c1.2-2.2,2.8-3.7,4.6-4.4c1.8-0.7,3.6-0.6,5.5,0.5C139.6,114.8,140.7,116.2,141.1,118.1z M134.4,116.5c-0.6,0-1.1,0.2-1.5,0.5
		c-0.3,0.2-0.6,0.5-0.8,0.9c-0.2,0.3-0.6,0.9-1,1.6c-0.4,0.8-0.7,1.3-0.9,1.7c-0.2,0.4-0.3,0.8-0.3,1.1c-0.1,0.5,0.1,1.1,0.3,1.6
		c0.3,0.5,0.7,0.9,1.2,1.2c1,0.5,1.9,0.5,2.9,0c0.3-0.2,0.7-0.4,1-0.8c0.3-0.4,0.7-1,1.1-1.8c0.5-0.9,0.9-1.6,1-2.1s0.2-0.9,0.2-1.3
		c-0.2-1-0.7-1.7-1.6-2.2C135.5,116.6,134.9,116.5,134.4,116.5z"/>
</g>
</svg>
