<?xml version="1.0" encoding="UTF-8" standalone="no"?>
<!-- Created with Inkscape (http://www.inkscape.org/) -->

<svg
   xmlns:dc="http://purl.org/dc/elements/1.1/"
   xmlns:cc="http://creativecommons.org/ns#"
   xmlns:rdf="http://www.w3.org/1999/02/22-rdf-syntax-ns#"
   xmlns:svg="http://www.w3.org/2000/svg"
   xmlns="http://www.w3.org/2000/svg"
   xmlns:sodipodi="http://sodipodi.sourceforge.net/DTD/sodipodi-0.dtd"
   xmlns:inkscape="http://www.inkscape.org/namespaces/inkscape"
   width="398.03125"
   height="402.008"
   id="svg3075"
   version="1.1"
   inkscape:version="0.48.4 r9939"
   sodipodi:docname="AJAX1.svg">
  <defs
     id="defs3077" />
  <sodipodi:namedview
     id="base"
     pagecolor="#ffffff"
     bordercolor="#666666"
     borderopacity="1.0"
     inkscape:pageopacity="0.0"
     inkscape:pageshadow="2"
     inkscape:zoom="1.435"
     inkscape:cx="292.1862"
     inkscape:cy="245.44242"
     inkscape:document-units="px"
     inkscape:current-layer="ANZ"
     showgrid="false"
     borderlayer="true"
     inkscape:window-width="1280"
     inkscape:window-height="1004"
     inkscape:window-x="-8"
     inkscape:window-y="-8"
     inkscape:window-maximized="1"
     fit-margin-top="0.5"
     fit-margin-left="0.5"
     fit-margin-right="0.5"
     fit-margin-bottom="0.5" />
  <metadata
     id="metadata3080">
    <rdf:RDF>
      <cc:Work
         rdf:about="">
        <dc:format>image/svg+xml</dc:format>
        <dc:type
           rdf:resource="http://purl.org/dc/dcmitype/StillImage" />
        <dc:title />
      </cc:Work>
    </rdf:RDF>
  </metadata>
  <g
     inkscape:label="ANZ"
     inkscape:groupmode="layer"
     id="ANZ"
     transform="translate(107.21875,-703.83575)">
    <path
       inkscape:connector-curvature="0"
       d="m -105.57721,1064.9052 c 0,21.7455 18.401679,39.3004 40.147859,39.3004 l 314.479791,0 c 21.73206,0 40.13374,-17.5549 40.13374,-39.3004 l 0,-51.8613 c 0,-21.74554 -18.40168,-39.30114 -40.13374,-39.30114 l -314.479791,0 c -21.74618,0 -40.147859,17.5556 -40.147859,39.30114 l 0,51.8613"
       style="fill:#ffffff;fill-opacity:1;fill-rule:evenodd;stroke:#000000;stroke-width:2.25787616;stroke-miterlimit:4;stroke-opacity:1;stroke-dasharray:none"
       id="path3218" />
    <path
       inkscape:connector-curvature="0"
       d="m -100.55344,1064.9052 c 0,19.2335 15.889799,35.1233 35.124089,35.1233 l 314.479791,0 c 19.23429,0 35.12409,-15.8898 35.12409,-35.1233 l 0,-51.8613 c 0,-19.23374 -15.8898,-35.12414 -35.12409,-35.12414 l -314.479791,0 c -19.23429,0 -35.124089,15.8904 -35.124089,35.12414 l 0,51.8613 z m 8.354139,0 0,-51.8613 c 0,-14.20984 11.71273,-25.92314 26.76995,-25.92314 l 314.479791,0 c 15.0431,0 26.75583,11.7133 26.75583,25.92314 l 0,51.8613 c 0,14.2099 -11.71273,25.9226 -26.75583,25.9226 l -314.479791,0 c -15.05722,0 -26.76995,-11.7127 -26.76995,-25.9226 l -8.354139,0 8.354139,0"
       style="fill:#000000;fill-opacity:1;fill-rule:evenodd;stroke:none"
       id="path3222" />
    <path
       inkscape:connector-curvature="0"
       d="m -21.104411,1064.9052 11.7127303,0 0,-51.8613 -10.8801503,0 0,2.5118 c 0,2.5121 -2.49777,5.0239 -5.00965,5.0239 l -5.02377,0 0,10.866 9.20084,0 0,33.4596"
       style="fill:#000000;fill-opacity:1;fill-rule:evenodd;stroke:none"
       id="path3224" />
    <path
       inkscape:connector-curvature="0"
       d="m 3.1536193,1050.6804 c 0.83204,4.1907 4.17708,9.2009 8.3682697,10.8796 2.49777,1.6652 7.52156,3.3452 11.69861,3.3452 8.36826,0 16.73652,-5.8571 19.24841,-14.2248 0.83315,-5.0103 0,-11.6992 -2.51189,-15.8899 -0.84669,-1.6649 -3.34449,-3.3449 -5.02377,-5.0102 -5.02379,-2.5118 -12.54533,-3.3583 -17.55498,-1.6786 l 0,-5.0103 22.57875,0 0,-10.8796 -32.6263197,0 -4.17708,26.7694 12.5453397,1.6653 c 1.67931,-1.6653 4.17707,-3.3439 6.68896,-3.3439 2.51188,0 5.02377,1.6786 6.68896,3.3439 0.83315,1.6797 0.83315,4.1771 0.83315,5.8568 0,4.1771 -4.17707,6.6892 -7.52154,6.6892 -4.17707,0 -7.52156,-2.5121 -7.52156,-6.6892 l -11.7127297,4.1771"
       style="fill:#000000;fill-opacity:1;fill-rule:evenodd;stroke:none"
       id="path3226" />
    <path
       inkscape:connector-curvature="0"
       d="m 51.669749,1049.0154 c 2.49777,9.2007 11.69861,15.8898 20.89946,15.8898 10.03345,0 18.40168,-6.6891 20.08099,-15.8898 1.66518,-6.6892 1.66518,-15.8898 0,-21.7469 -1.67931,-9.2007 -10.04754,-16.7364 -20.08099,-16.7364 -9.20085,0 -18.40169,7.5357 -20.89946,16.7364 -1.6793,5.8571 -1.6793,15.0577 0,21.7469 z m 11.69861,-4.1918 c -0.83315,-4.1771 -0.83315,-10.0331 0,-14.2101 0.83204,-4.1915 5.02377,-7.5221 9.20085,-7.5221 5.02377,0 9.20084,3.3306 10.03345,7.5221 0.84669,4.177 0.84669,10.033 0,14.2101 -0.83204,5.0236 -5.00968,8.3689 -10.03345,8.3689 -4.17708,0 -8.36824,-3.3453 -9.20085,-8.3689 l -11.69861,4.1918 11.69861,-4.1918"
       style="fill:#000000;fill-opacity:1;fill-rule:evenodd;stroke:none"
       id="path3228" />
    <path
       inkscape:connector-curvature="0"
       d="m 156.2094,1064.9052 12.54533,0 0,-22.579 c 0,-2.5118 1.66519,-4.1918 5.00966,-4.1918 2.51188,0 4.19119,1.68 4.19119,4.1918 l 0,22.579 12.54533,0 0,-22.579 c -0.83203,-2.5118 1.66516,-4.1918 4.17705,-4.1918 2.51191,0 5.0238,1.68 5.0238,4.1918 l 0,22.579 11.71272,0 0,-24.2587 c 0,-5.0239 -4.19119,-10.8662 -9.20084,-12.5448 -5.02377,-2.5118 -12.54533,-0.8354 -15.8898,2.5118 -2.51188,-1.6797 -5.85638,-4.1915 -9.20084,-4.1915 -2.51191,0 -6.70308,1.6797 -9.20087,3.3583 l 0,-1.6786 -11.71273,0 0,36.8035"
       style="fill:#000000;fill-opacity:1;fill-rule:evenodd;stroke:none"
       id="path3230" />
    <path
       d="m 224.91161,704.33575 c 5.96927,0 11.93851,3.21749 14.69029,8.26946 2.75181,5.03789 2.75181,12.3901 0,16.97643 L 106.03444,960.01206 c -2.75179,5.0377 -8.721051,8.721 -14.224621,8.721 -5.51768,0 -11.48695,-3.6833 -14.23873,-8.721 L -55.996401,729.58164 c -2.75179,-4.58633 -2.75179,-11.93854 0,-16.97643 2.75181,-5.05197 8.72105,-8.26946 14.69031,-8.26946 l 266.217701,0"
       style="fill:#ed1c24;fill-opacity:1;fill-rule:evenodd;stroke:none"
       id="path3320-1"
       inkscape:connector-curvature="0" />
    <path
       d="m -26.615771,729.58164 236.837071,0 L 91.809819,934.76616 -26.615771,729.58164"
       style="fill:#ffffff;fill-opacity:1;fill-rule:evenodd;stroke:none"
       id="path3322-7"
       inkscape:connector-curvature="0" />
  </g>
</svg>
