<?xml version="1.0" encoding="UTF-8" standalone="no"?>
<svg
   xmlns:dc="http://purl.org/dc/elements/1.1/"
   xmlns:cc="http://creativecommons.org/ns#"
   xmlns:rdf="http://www.w3.org/1999/02/22-rdf-syntax-ns#"
   xmlns:svg="http://www.w3.org/2000/svg"
   xmlns="http://www.w3.org/2000/svg"
   xmlns:sodipodi="http://sodipodi.sourceforge.net/DTD/sodipodi-0.dtd"
   xmlns:inkscape="http://www.inkscape.org/namespaces/inkscape"
   version="1.1"
   id="Layer_1"
   x="0px"
   y="0px"
   width="769.688px"
   height="769.656px"
   viewBox="-360.791 -360.781 769.688 769.656"
   xml:space="preserve"
   inkscape:version="0.91 r13725"
   sodipodi:docname="Spain_traffic_signal_tr301-100.svg"><metadata
     id="metadata17"><rdf:RDF><cc:Work
         rdf:about=""><dc:format>image/svg+xml</dc:format><dc:type
           rdf:resource="http://purl.org/dc/dcmitype/StillImage" /><dc:title></dc:title></cc:Work></rdf:RDF></metadata><defs
     id="defs15" /><sodipodi:namedview
     pagecolor="#ffffff"
     bordercolor="#666666"
     borderopacity="1"
     objecttolerance="10"
     gridtolerance="10"
     guidetolerance="10"
     inkscape:pageopacity="0"
     inkscape:pageshadow="2"
     inkscape:window-width="1366"
     inkscape:window-height="705"
     id="namedview13"
     showgrid="false"
     inkscape:zoom="0.30663049"
     inkscape:cx="384.84399"
     inkscape:cy="384.828"
     inkscape:window-x="-8"
     inkscape:window-y="-8"
     inkscape:window-maximized="1"
     inkscape:current-layer="Layer_1" /><path
     fill="#E41408"
     d="M-360.791,24.031c0-212.523,172.305-384.812,384.852-384.812c212.508,0,384.836,172.289,384.836,384.812  c0,212.531-172.328,384.844-384.836,384.844C-188.486,408.875-360.791,236.562-360.791,24.031"
     id="path3" /><path
     fill="#FFFFFF"
     d="M-258.15,24.031c0-155.852,126.336-282.203,282.211-282.203c155.852,0,282.18,126.352,282.18,282.203  c0,155.875-126.328,282.188-282.18,282.188C-131.814,306.219-258.15,179.906-258.15,24.031"
     id="path5"
     style="fill:#ffcc00" /><path
     fill-rule="evenodd"
     clip-rule="evenodd"
     d="M-190.415,128.5h47.915V-75.371h-42.533v8.891  c0,10.621-10.715,21.291-21.29,21.291h-17.734v40.708h33.643V128.5"
     id="path7" /><path
     fill-rule="evenodd"
     clip-rule="evenodd"
     d="M55.186-18.972c-8.891-35.421-44.358-62.045-81.558-62.045  c-37.246,0-70.889,26.624-81.581,62.045c-5.264,24.799-5.264,63.824,0,88.623c10.691,35.421,44.334,61.999,81.581,61.999  c37.2,0,72.667-26.578,81.558-61.999C62.204,44.852,62.204,5.827,55.186-18.972z M10.827,53.742  c-1.802,17.64-19.465,31.864-37.2,31.864c-17.71,0-33.737-14.225-37.246-31.864c-1.755-15.957-1.755-40.755,0-56.758  c3.509-17.781,19.536-31.912,37.246-31.912c17.734,0,35.398,14.131,37.2,31.912C14.336,12.987,14.336,37.785,10.827,53.742z"
     id="path9" /><path
     fill-rule="evenodd"
     clip-rule="evenodd"
     d="M265.186-18.972c-8.891-35.421-44.358-62.045-81.559-62.045  c-37.246,0-70.889,26.624-81.58,62.045c-5.264,24.799-5.264,63.824,0,88.623c10.691,35.421,44.334,61.999,81.58,61.999  c37.2,0,72.668-26.578,81.559-61.999C272.204,44.852,272.204,5.827,265.186-18.972z M220.827,53.742  c-1.802,17.64-19.466,31.864-37.2,31.864c-17.71,0-33.736-14.225-37.246-31.864c-1.754-15.957-1.754-40.755,0-56.758  c3.51-17.781,19.536-31.912,37.246-31.912c17.734,0,35.398,14.131,37.2,31.912C224.336,12.987,224.336,37.785,220.827,53.742z"
     id="path11" /></svg>